<?xml version="1.0" encoding="UTF-8"?>
<svg xmlns="http://www.w3.org/2000/svg" xmlns:xlink="http://www.w3.org/1999/xlink" width="100px" height="30px" viewBox="0 0 99 30" version="1.1">
<g id="surface1">
<path style=" stroke:none;fill-rule:nonzero;fill:rgb(0%,0%,0%);fill-opacity:1;" d="M 11.175781 1.367188 C 11.429688 2.167969 11.628906 2.894531 11.628906 2.96875 C 11.628906 3.039062 11.265625 2.894531 10.8125 2.621094 C 10.359375 2.367188 9.996094 2.222656 9.996094 2.3125 C 9.996094 2.382812 10.210938 3.09375 10.46875 3.878906 C 11.011719 5.535156 11.121094 5.332031 9.066406 6.445312 L 7.867188 7.097656 L 7.488281 6.390625 C 6.996094 5.515625 6.378906 5.277344 4.6875 5.277344 C 2.636719 5.277344 1.78125 5.863281 0.925781 7.882812 C 0.453125 8.972656 0.453125 9.558594 0.890625 10.375 C 1.21875 11.011719 1.21875 11.011719 0.800781 11.523438 C -0.0351562 12.523438 -0.0742188 13.089844 0.507812 18.222656 C 1 22.5 1.089844 23.007812 1.507812 23.648438 C 2 24.375 2.417969 24.648438 6.632812 26.851562 C 7.941406 27.542969 9.613281 28.433594 10.375 28.851562 C 13.246094 30.4375 13.429688 30.417969 16.9375 28.597656 C 24.332031 24.738281 25.257812 24.175781 25.660156 23.136719 C 25.859375 22.644531 25.96875 21.699219 26.457031 17.113281 C 26.820312 13.5625 26.75 12.433594 26.132812 11.613281 L 25.660156 10.996094 L 26.003906 10.375 C 26.441406 9.539062 26.441406 8.957031 25.96875 7.882812 C 25.113281 5.863281 24.257812 5.277344 22.207031 5.277344 C 20.660156 5.277344 19.878906 5.535156 19.535156 6.171875 C 18.988281 7.171875 19.027344 7.171875 17.828125 6.460938 C 16.863281 5.898438 16.445312 5.460938 14.882812 3.347656 C 13.882812 2.003906 13.027344 0.910156 12.992188 0.910156 C 12.976562 0.910156 13.011719 1.21875 13.101562 1.582031 C 13.191406 1.964844 13.265625 2.347656 13.265625 2.421875 C 13.265625 2.511719 12.703125 1.984375 11.992188 1.238281 L 10.738281 -0.0898438 Z M 14.902344 5.460938 C 14.902344 5.316406 15.191406 5.535156 15.535156 5.933594 C 16.007812 6.5 17.335938 7.371094 20.644531 9.300781 C 23.878906 11.175781 25.222656 12.050781 25.476562 12.453125 C 25.839844 13.050781 25.839844 14.125 25.441406 17.203125 C 25.367188 17.894531 25.1875 19.367188 25.058594 20.480469 C 24.933594 21.753906 24.730469 22.683594 24.515625 23.027344 C 24.257812 23.464844 23.1875 24.121094 19.679688 25.976562 C 17.207031 27.289062 14.917969 28.488281 14.59375 28.652344 C 13.683594 29.109375 12.8125 29.015625 11.574219 28.324219 C 10.957031 27.996094 9.429688 27.179688 8.175781 26.523438 C 3.324219 23.957031 2.636719 23.554688 2.324219 23.007812 C 2.164062 22.71875 1.945312 21.789062 1.835938 20.933594 C 1.746094 20.078125 1.5625 18.566406 1.4375 17.566406 C 1.308594 16.566406 1.199219 15.019531 1.199219 14.144531 C 1.179688 12.5625 1.199219 12.523438 1.746094 12.03125 C 2.054688 11.742188 3.125 11.050781 4.105469 10.503906 C 9.46875 7.445312 12.085938 5.84375 12.066406 5.625 C 12.046875 5.480469 11.976562 5.132812 11.902344 4.84375 L 11.757812 4.296875 L 12.394531 4.695312 C 13.246094 5.222656 13.320312 5.207031 13.175781 4.496094 L 13.046875 3.914062 L 13.972656 4.824219 C 14.5 5.332031 14.902344 5.605469 14.902344 5.460938 Z M 6.523438 6.84375 C 6.742188 7.117188 6.90625 7.390625 6.90625 7.445312 C 6.90625 7.519531 5.832031 8.191406 4.507812 8.957031 C 2.34375 10.210938 2.089844 10.320312 1.871094 10.046875 C 1.527344 9.574219 1.597656 8.8125 2.089844 7.828125 C 2.726562 6.570312 3.089844 6.371094 4.742188 6.371094 C 6.050781 6.371094 6.179688 6.40625 6.523438 6.84375 Z M 24.113281 6.773438 C 25.078125 7.828125 25.511719 9.410156 25.039062 10.066406 C 24.824219 10.359375 24.585938 10.25 22.441406 9.011719 C 21.152344 8.265625 20.0625 7.589844 20.023438 7.5 C 20.007812 7.410156 20.152344 7.117188 20.351562 6.863281 C 20.714844 6.40625 20.824219 6.371094 22.242188 6.371094 C 23.570312 6.371094 23.785156 6.425781 24.113281 6.773438 Z M 24.113281 6.773438 "/>
<path style=" stroke:none;fill-rule:nonzero;fill:rgb(0%,0%,0%);fill-opacity:1;" d="M 7.324219 12.777344 C 6.46875 13.199219 6.359375 14.652344 7.140625 15.199219 C 8.613281 16.238281 10.265625 14.273438 8.996094 13.015625 C 8.539062 12.542969 7.976562 12.453125 7.324219 12.777344 Z M 7.324219 12.777344 "/>
<path style=" stroke:none;fill-rule:nonzero;fill:rgb(0%,0%,0%);fill-opacity:1;" d="M 17.863281 12.777344 C 17.007812 13.199219 16.898438 14.652344 17.679688 15.199219 C 19.152344 16.238281 20.808594 14.273438 19.535156 13.015625 C 19.082031 12.542969 18.515625 12.453125 17.863281 12.777344 Z M 17.863281 12.777344 "/>
<path style=" stroke:none;fill-rule:nonzero;fill:rgb(0%,0%,0%);fill-opacity:1;" d="M 12.410156 16.273438 C 11.339844 16.765625 11.449219 17.601562 12.664062 18.113281 C 13.230469 18.347656 13.265625 18.421875 13.265625 19.277344 L 13.265625 20.207031 L 12.03125 20.207031 C 10.847656 20.207031 9.996094 19.898438 9.996094 19.476562 C 9.996094 18.988281 9.613281 18.402344 9.359375 18.496094 C 8.703125 18.75 9.359375 20.332031 10.320312 20.824219 C 10.8125 21.082031 10.867188 21.207031 11.046875 22.683594 C 11.175781 23.539062 11.355469 24.375 11.464844 24.503906 C 11.738281 24.847656 15.320312 24.867188 15.589844 24.519531 C 15.808594 24.246094 16.171875 22.574219 16.171875 21.84375 C 16.171875 21.554688 16.28125 21.226562 16.410156 21.132812 C 17.570312 20.1875 17.828125 19.878906 17.9375 19.242188 C 18.027344 18.640625 17.988281 18.566406 17.644531 18.566406 C 17.390625 18.566406 17.261719 18.675781 17.261719 18.933594 C 17.261719 19.152344 17.0625 19.515625 16.808594 19.75 C 16.425781 20.152344 16.210938 20.207031 15.171875 20.207031 L 13.992188 20.207031 L 13.992188 19.207031 C 13.992188 18.402344 14.066406 18.167969 14.320312 18.078125 C 14.808594 17.894531 15.265625 17.4375 15.265625 17.113281 C 15.265625 16.292969 13.519531 15.78125 12.410156 16.273438 Z M 13.082031 22.480469 L 13.082031 24.027344 L 12.558594 24.027344 C 11.976562 24.027344 12.011719 24.121094 11.703125 21.789062 L 11.59375 20.933594 L 13.082031 20.933594 Z M 15.390625 21.226562 C 15.445312 21.390625 15.390625 22.082031 15.28125 22.773438 C 15.0625 23.992188 15.027344 24.027344 14.519531 24.027344 L 13.992188 24.027344 L 13.992188 22.609375 C 13.992188 21.828125 14.046875 21.117188 14.121094 21.0625 C 14.355469 20.808594 15.28125 20.933594 15.390625 21.226562 Z M 15.390625 21.226562 "/>
<path style=" stroke:none;fill-rule:nonzero;fill:rgb(0%,0%,0%);fill-opacity:1;" d="M 40.941406 9.285156 C 38.667969 9.757812 36.851562 11.414062 36.160156 13.632812 C 35.070312 17.113281 36.542969 20.605469 39.742188 22.082031 C 40.46875 22.410156 40.941406 22.480469 42.523438 22.480469 C 44.230469 22.480469 44.519531 22.425781 45.339844 21.992188 C 45.847656 21.734375 46.519531 21.226562 46.847656 20.878906 L 47.464844 20.242188 L 46.082031 19.296875 L 45.609375 19.75 C 44.921875 20.40625 43.628906 20.933594 42.632812 20.933594 C 41.195312 20.933594 40.339844 20.589844 39.304688 19.550781 C 38.144531 18.386719 37.6875 17.113281 37.851562 15.363281 C 38.105469 12.777344 39.761719 11.011719 42.160156 10.792969 C 43.414062 10.667969 44.339844 10.957031 45.175781 11.6875 L 45.792969 12.234375 L 46.539062 11.6875 L 47.28125 11.121094 L 46.8125 10.648438 C 45.648438 9.484375 42.941406 8.847656 40.941406 9.285156 Z M 40.941406 9.285156 "/>
<path style=" stroke:none;fill-rule:nonzero;fill:rgb(0%,0%,0%);fill-opacity:1;" d="M 55.824219 9.757812 C 55.042969 10.304688 55.515625 11.652344 56.496094 11.652344 C 57.222656 11.652344 57.605469 11.324219 57.605469 10.667969 C 57.605469 9.628906 56.679688 9.15625 55.824219 9.757812 Z M 55.824219 9.757812 "/>
<path style=" stroke:none;fill-rule:nonzero;fill:rgb(0%,0%,0%);fill-opacity:1;" d="M 75.59375 15.855469 L 75.59375 22.246094 L 79.191406 22.171875 L 82.773438 22.117188 L 83.972656 21.535156 C 85.371094 20.84375 86.351562 19.914062 87.007812 18.660156 C 87.441406 17.839844 87.480469 17.546875 87.496094 15.835938 C 87.496094 13.707031 87.226562 12.832031 86.152344 11.613281 C 84.71875 9.976562 82.9375 9.464844 78.558594 9.464844 L 75.59375 9.464844 Z M 81.972656 12.398438 C 83.445312 12.761719 84.316406 14.035156 84.316406 15.78125 C 84.300781 18.53125 82.535156 19.769531 79.011719 19.496094 C 78.703125 19.476562 78.683594 19.167969 78.683594 15.765625 L 78.683594 12.070312 L 80.011719 12.140625 C 80.71875 12.195312 81.609375 12.304688 81.972656 12.398438 Z M 81.972656 12.398438 "/>
<path style=" stroke:none;fill-rule:nonzero;fill:rgb(0%,0%,0%);fill-opacity:1;" d="M 92.222656 13.234375 C 90.203125 13.960938 89.222656 15.21875 89.078125 17.257812 C 88.96875 19.023438 89.261719 19.878906 90.367188 21.027344 C 91.132812 21.808594 91.53125 22.0625 92.386719 22.300781 C 96.457031 23.484375 100.054688 20.007812 98.746094 16.164062 C 97.910156 13.652344 94.855469 12.289062 92.222656 13.234375 Z M 95.058594 15.78125 C 96.328125 16.527344 96.457031 18.386719 95.328125 19.421875 C 94.601562 20.097656 93.894531 20.1875 93.039062 19.75 C 91.785156 19.097656 91.566406 16.964844 92.65625 15.984375 C 93.332031 15.382812 94.238281 15.308594 95.058594 15.78125 Z M 95.058594 15.78125 "/>
<path style=" stroke:none;fill-rule:nonzero;fill:rgb(0%,0%,0%);fill-opacity:1;" d="M 52.0625 13.796875 C 51.769531 14 51.40625 14.273438 51.261719 14.4375 C 50.898438 14.890625 50.699219 14.816406 50.699219 14.199219 C 50.699219 13.671875 50.664062 13.652344 49.882812 13.652344 L 49.0625 13.652344 L 49.0625 22.207031 L 50.882812 22.207031 L 50.882812 19.660156 C 50.882812 16.839844 51.042969 16.164062 51.878906 15.507812 C 52.226562 15.238281 52.644531 15.109375 53.171875 15.109375 C 53.734375 15.109375 53.96875 15.035156 53.96875 14.855469 C 53.96875 14.726562 54.023438 14.34375 54.078125 14.035156 C 54.1875 13.472656 54.1875 13.472656 53.40625 13.472656 C 52.953125 13.472656 52.371094 13.617188 52.0625 13.796875 Z M 52.0625 13.796875 "/>
<path style=" stroke:none;fill-rule:nonzero;fill:rgb(0%,0%,0%);fill-opacity:1;" d="M 62.621094 13.761719 C 60.183594 14.652344 59.078125 17.492188 60.222656 19.933594 C 60.984375 21.609375 62.382812 22.445312 64.363281 22.445312 C 66.652344 22.445312 68.378906 21.171875 68.871094 19.097656 C 69.578125 16.128906 67.472656 13.472656 64.417969 13.488281 C 63.820312 13.488281 63 13.617188 62.621094 13.761719 Z M 66.253906 15.65625 C 67.800781 17.167969 67.398438 19.933594 65.507812 20.769531 C 63.511719 21.664062 61.601562 20.242188 61.601562 17.894531 C 61.621094 16.039062 62.855469 14.855469 64.65625 14.980469 C 65.4375 15.035156 65.726562 15.164062 66.253906 15.65625 Z M 66.253906 15.65625 "/>
<path style=" stroke:none;fill-rule:nonzero;fill:rgb(0%,0%,0%);fill-opacity:1;" d="M 55.605469 17.929688 L 55.605469 22.207031 L 57.421875 22.207031 L 57.421875 13.652344 L 55.605469 13.652344 Z M 55.605469 17.929688 "/>
<path style=" stroke:none;fill-rule:nonzero;fill:rgb(0%,0%,0%);fill-opacity:1;" d="M 71.089844 20.480469 C 70.179688 21.625 71.832031 23.0625 72.867188 22.027344 C 73.324219 21.570312 73.339844 20.714844 72.90625 20.332031 C 72.394531 19.859375 71.507812 19.933594 71.089844 20.480469 Z M 71.089844 20.480469 "/>
</g>
</svg>
